<mxfile host="65bd71144e">
    <diagram id="C5RBs43oDa-KdzZeNtuy" name="Page-1">
        <mxGraphModel dx="2241" dy="1076" grid="0" gridSize="10" guides="0" tooltips="1" connect="1" arrows="1" fold="1" page="1" pageScale="1" pageWidth="2400" pageHeight="1700" background="#000000" math="0" shadow="0">
            <root>
                <mxCell id="WIyWlLk6GJQsqaUBKTNV-0"/>
                <mxCell id="WIyWlLk6GJQsqaUBKTNV-1" parent="WIyWlLk6GJQsqaUBKTNV-0"/>
                <mxCell id="136" value="Model" style="swimlane;whiteSpace=wrap;html=1;strokeColor=#666666;fillColor=#f5f5f5;fontColor=#333333;" parent="WIyWlLk6GJQsqaUBKTNV-1" vertex="1">
                    <mxGeometry x="11" y="140" width="1239" height="1540" as="geometry"/>
                </mxCell>
                <mxCell id="19" value="Parser" style="swimlane;whiteSpace=wrap;html=1;strokeColor=#666666;fillColor=#f5f5f5;fontColor=#333333;" parent="136" vertex="1">
                    <mxGeometry x="39" y="90" width="590" height="450" as="geometry"/>
                </mxCell>
                <mxCell id="tlL8x4SYafilrO8FaroJ-14" value="ParserFactory" style="swimlane;fontStyle=0;childLayout=stackLayout;horizontal=1;startSize=30;horizontalStack=0;resizeParent=1;resizeParentMax=0;resizeLast=0;collapsible=1;marginBottom=0;fillColor=#BC6C25;strokeColor=#DDA15E;fontColor=#FEFAE0;rounded=1;" parent="19" vertex="1">
                    <mxGeometry x="10" y="60" width="210" height="150" as="geometry"/>
                </mxCell>
                <mxCell id="tlL8x4SYafilrO8FaroJ-15" value="Line : String" style="text;strokeColor=none;fillColor=none;align=left;verticalAlign=middle;spacingLeft=4;spacingRight=4;overflow=hidden;points=[[0,0.5],[1,0.5]];portConstraint=eastwest;rotatable=0;fontColor=#FEFAE0;rounded=1;" parent="tlL8x4SYafilrO8FaroJ-14" vertex="1">
                    <mxGeometry y="30" width="210" height="30" as="geometry"/>
                </mxCell>
                <mxCell id="tlL8x4SYafilrO8FaroJ-16" value="TerminalStationDeparture : String" style="text;strokeColor=none;fillColor=none;align=left;verticalAlign=middle;spacingLeft=4;spacingRight=4;overflow=hidden;points=[[0,0.5],[1,0.5]];portConstraint=eastwest;rotatable=0;fontColor=#FEFAE0;rounded=1;" parent="tlL8x4SYafilrO8FaroJ-14" vertex="1">
                    <mxGeometry y="60" width="210" height="30" as="geometry"/>
                </mxCell>
                <mxCell id="tlL8x4SYafilrO8FaroJ-17" value="TerminalStationArrival: String" style="text;strokeColor=none;fillColor=none;align=left;verticalAlign=middle;spacingLeft=4;spacingRight=4;overflow=hidden;points=[[0,0.5],[1,0.5]];portConstraint=eastwest;rotatable=0;fontColor=#FEFAE0;rounded=1;" parent="tlL8x4SYafilrO8FaroJ-14" vertex="1">
                    <mxGeometry y="90" width="210" height="30" as="geometry"/>
                </mxCell>
                <mxCell id="tlL8x4SYafilrO8FaroJ-20" value="StartingTime: Time" style="text;strokeColor=none;fillColor=none;align=left;verticalAlign=middle;spacingLeft=4;spacingRight=4;overflow=hidden;points=[[0,0.5],[1,0.5]];portConstraint=eastwest;rotatable=0;fontColor=#FEFAE0;rounded=1;" parent="tlL8x4SYafilrO8FaroJ-14" vertex="1">
                    <mxGeometry y="120" width="210" height="30" as="geometry"/>
                </mxCell>
                <mxCell id="zkfFHV4jXpPFQw0GAbJ--0" value="Parser" style="swimlane;fontStyle=0;align=center;verticalAlign=top;childLayout=stackLayout;horizontal=1;startSize=26;horizontalStack=0;resizeParent=1;resizeLast=0;collapsible=1;marginBottom=0;rounded=1;shadow=0;strokeWidth=1;fillColor=#BC6C25;strokeColor=#DDA15E;fontColor=#FEFAE0;" parent="19" vertex="1">
                    <mxGeometry x="260" y="50" width="310" height="386" as="geometry">
                        <mxRectangle x="230" y="140" width="160" height="26" as="alternateBounds"/>
                    </mxGeometry>
                </mxCell>
                <mxCell id="126" value="network: Network" style="text;strokeColor=none;fillColor=none;align=left;verticalAlign=middle;spacingLeft=4;spacingRight=4;overflow=hidden;points=[[0,0.5],[1,0.5]];portConstraint=eastwest;rotatable=0;fontColor=#FEFAE0;rounded=1;" parent="zkfFHV4jXpPFQw0GAbJ--0" vertex="1">
                    <mxGeometry y="26" width="310" height="30" as="geometry"/>
                </mxCell>
                <mxCell id="445" value="stations: List&lt;Station&gt;" style="text;strokeColor=none;fillColor=none;align=left;verticalAlign=middle;spacingLeft=4;spacingRight=4;overflow=hidden;points=[[0,0.5],[1,0.5]];portConstraint=eastwest;rotatable=0;fontColor=#FEFAE0;rounded=1;" vertex="1" parent="zkfFHV4jXpPFQw0GAbJ--0">
                    <mxGeometry y="56" width="310" height="30" as="geometry"/>
                </mxCell>
                <mxCell id="446" value="edges: List&lt;EdgeTransport&gt;" style="text;strokeColor=none;fillColor=none;align=left;verticalAlign=middle;spacingLeft=4;spacingRight=4;overflow=hidden;points=[[0,0.5],[1,0.5]];portConstraint=eastwest;rotatable=0;fontColor=#FEFAE0;rounded=1;" vertex="1" parent="zkfFHV4jXpPFQw0GAbJ--0">
                    <mxGeometry y="86" width="310" height="30" as="geometry"/>
                </mxCell>
                <mxCell id="447" value="dataLine: Map&lt;Line, ArrayList&lt;DurationJourney&gt;&gt;" style="text;strokeColor=none;fillColor=none;align=left;verticalAlign=middle;spacingLeft=4;spacingRight=4;overflow=hidden;points=[[0,0.5],[1,0.5]];portConstraint=eastwest;rotatable=0;fontColor=#FEFAE0;rounded=1;" vertex="1" parent="zkfFHV4jXpPFQw0GAbJ--0">
                    <mxGeometry y="116" width="310" height="30" as="geometry"/>
                </mxCell>
                <mxCell id="131" value="" style="endArrow=none;dashed=1;html=1;rounded=1;sketch=0;fontColor=#FEFAE0;strokeColor=#DDA15E;fillColor=#BC6C25;curved=0;labelBackgroundColor=#283618;" parent="zkfFHV4jXpPFQw0GAbJ--0" edge="1">
                    <mxGeometry width="50" height="50" relative="1" as="geometry">
                        <mxPoint y="150" as="sourcePoint"/>
                        <mxPoint x="310" y="150" as="targetPoint"/>
                    </mxGeometry>
                </mxCell>
                <mxCell id="127" value="Parser()" style="text;strokeColor=none;fillColor=none;align=left;verticalAlign=middle;spacingLeft=4;spacingRight=4;overflow=hidden;points=[[0,0.5],[1,0.5]];portConstraint=eastwest;rotatable=0;fontColor=#FEFAE0;rounded=1;" parent="zkfFHV4jXpPFQw0GAbJ--0" vertex="1">
                    <mxGeometry y="146" width="310" height="30" as="geometry"/>
                </mxCell>
                <mxCell id="128" value="openFile(String)" style="text;strokeColor=none;fillColor=none;align=left;verticalAlign=middle;spacingLeft=4;spacingRight=4;overflow=hidden;points=[[0,0.5],[1,0.5]];portConstraint=eastwest;rotatable=0;fontColor=#FEFAE0;rounded=1;" parent="zkfFHV4jXpPFQw0GAbJ--0" vertex="1">
                    <mxGeometry y="176" width="310" height="30" as="geometry"/>
                </mxCell>
                <mxCell id="129" value="stationAlreadyExist(String, String)" style="text;strokeColor=none;fillColor=none;align=left;verticalAlign=middle;spacingLeft=4;spacingRight=4;overflow=hidden;points=[[0,0.5],[1,0.5]];portConstraint=eastwest;rotatable=0;fontColor=#FEFAE0;rounded=1;" parent="zkfFHV4jXpPFQw0GAbJ--0" vertex="1">
                    <mxGeometry y="206" width="310" height="30" as="geometry"/>
                </mxCell>
                <mxCell id="448" value="lineAlreadyExist(String)" style="text;strokeColor=none;fillColor=none;align=left;verticalAlign=middle;spacingLeft=4;spacingRight=4;overflow=hidden;points=[[0,0.5],[1,0.5]];portConstraint=eastwest;rotatable=0;fontColor=#FEFAE0;rounded=1;" vertex="1" parent="zkfFHV4jXpPFQw0GAbJ--0">
                    <mxGeometry y="236" width="310" height="30" as="geometry"/>
                </mxCell>
                <mxCell id="449" value="createStation(String, String, float, float)" style="text;strokeColor=none;fillColor=none;align=left;verticalAlign=middle;spacingLeft=4;spacingRight=4;overflow=hidden;points=[[0,0.5],[1,0.5]];portConstraint=eastwest;rotatable=0;fontColor=#FEFAE0;rounded=1;" vertex="1" parent="zkfFHV4jXpPFQw0GAbJ--0">
                    <mxGeometry y="266" width="310" height="30" as="geometry"/>
                </mxCell>
                <mxCell id="450" value="parseStations(File)" style="text;strokeColor=none;fillColor=none;align=left;verticalAlign=middle;spacingLeft=4;spacingRight=4;overflow=hidden;points=[[0,0.5],[1,0.5]];portConstraint=eastwest;rotatable=0;fontColor=#FEFAE0;rounded=1;" vertex="1" parent="zkfFHV4jXpPFQw0GAbJ--0">
                    <mxGeometry y="296" width="310" height="30" as="geometry"/>
                </mxCell>
                <mxCell id="130" value="parseLines(File)" style="text;strokeColor=none;fillColor=none;align=left;verticalAlign=middle;spacingLeft=4;spacingRight=4;overflow=hidden;points=[[0,0.5],[1,0.5]];portConstraint=eastwest;rotatable=0;fontColor=#FEFAE0;rounded=1;" parent="zkfFHV4jXpPFQw0GAbJ--0" vertex="1">
                    <mxGeometry y="326" width="310" height="30" as="geometry"/>
                </mxCell>
                <mxCell id="451" value="fillStationsSchedulesFromTerminusLineStart()" style="text;strokeColor=none;fillColor=none;align=left;verticalAlign=middle;spacingLeft=4;spacingRight=4;overflow=hidden;points=[[0,0.5],[1,0.5]];portConstraint=eastwest;rotatable=0;fontColor=#FEFAE0;rounded=1;" vertex="1" parent="zkfFHV4jXpPFQw0GAbJ--0">
                    <mxGeometry y="356" width="310" height="30" as="geometry"/>
                </mxCell>
                <mxCell id="tlL8x4SYafilrO8FaroJ-30" style="edgeStyle=orthogonalEdgeStyle;curved=0;rounded=1;sketch=0;orthogonalLoop=1;jettySize=auto;html=1;fontColor=#FEFAE0;strokeColor=#DDA15E;fillColor=#BC6C25;labelBackgroundColor=#283618;dashed=1;dashPattern=8 8;endArrow=block;endFill=0;" parent="19" edge="1">
                    <mxGeometry relative="1" as="geometry">
                        <mxPoint x="220" y="120" as="targetPoint"/>
                        <mxPoint x="250" y="120" as="sourcePoint"/>
                        <Array as="points">
                            <mxPoint x="260" y="120"/>
                            <mxPoint x="260" y="120"/>
                        </Array>
                    </mxGeometry>
                </mxCell>
                <mxCell id="23" value="Transport" style="swimlane;whiteSpace=wrap;html=1;strokeColor=#666666;fillColor=#f5f5f5;fontColor=#333333;" parent="136" vertex="1">
                    <mxGeometry x="39" y="600" width="1081" height="910" as="geometry"/>
                </mxCell>
                <mxCell id="tlL8x4SYafilrO8FaroJ-0" value="Station" style="swimlane;fontStyle=0;childLayout=stackLayout;horizontal=1;startSize=30;horizontalStack=0;resizeParent=1;resizeParentMax=0;resizeLast=0;collapsible=1;marginBottom=0;fillColor=#BC6C25;strokeColor=#DDA15E;fontColor=#FEFAE0;rounded=1;" parent="23" vertex="1">
                    <mxGeometry x="80" y="500" width="320" height="360" as="geometry">
                        <mxRectangle x="29" y="175" width="80" height="30" as="alternateBounds"/>
                    </mxGeometry>
                </mxCell>
                <mxCell id="tlL8x4SYafilrO8FaroJ-1" value="Name : String" style="text;strokeColor=none;fillColor=none;align=left;verticalAlign=middle;spacingLeft=4;spacingRight=4;overflow=hidden;points=[[0,0.5],[1,0.5]];portConstraint=eastwest;rotatable=0;fontColor=#FEFAE0;rounded=1;" parent="tlL8x4SYafilrO8FaroJ-0" vertex="1">
                    <mxGeometry y="30" width="320" height="30" as="geometry"/>
                </mxCell>
                <mxCell id="46" value="x: float" style="text;strokeColor=none;fillColor=none;align=left;verticalAlign=middle;spacingLeft=4;spacingRight=4;overflow=hidden;points=[[0,0.5],[1,0.5]];portConstraint=eastwest;rotatable=0;fontColor=#FEFAE0;rounded=1;" parent="tlL8x4SYafilrO8FaroJ-0" vertex="1">
                    <mxGeometry y="60" width="320" height="30" as="geometry"/>
                </mxCell>
                <mxCell id="462" value="y: float" style="text;strokeColor=none;fillColor=none;align=left;verticalAlign=middle;spacingLeft=4;spacingRight=4;overflow=hidden;points=[[0,0.5],[1,0.5]];portConstraint=eastwest;rotatable=0;fontColor=#FEFAE0;rounded=1;" vertex="1" parent="tlL8x4SYafilrO8FaroJ-0">
                    <mxGeometry y="90" width="320" height="30" as="geometry"/>
                </mxCell>
                <mxCell id="463" value="allLines: ArrayList&lt;String&gt;" style="text;strokeColor=none;fillColor=none;align=left;verticalAlign=middle;spacingLeft=4;spacingRight=4;overflow=hidden;points=[[0,0.5],[1,0.5]];portConstraint=eastwest;rotatable=0;fontColor=#FEFAE0;rounded=1;" vertex="1" parent="tlL8x4SYafilrO8FaroJ-0">
                    <mxGeometry y="120" width="320" height="30" as="geometry"/>
                </mxCell>
                <mxCell id="464" value="schedules: Map&lt;String, ArrayList&lt;Time&gt;&gt;" style="text;strokeColor=none;fillColor=none;align=left;verticalAlign=middle;spacingLeft=4;spacingRight=4;overflow=hidden;points=[[0,0.5],[1,0.5]];portConstraint=eastwest;rotatable=0;fontColor=#FEFAE0;rounded=1;" vertex="1" parent="tlL8x4SYafilrO8FaroJ-0">
                    <mxGeometry y="150" width="320" height="30" as="geometry"/>
                </mxCell>
                <mxCell id="tlL8x4SYafilrO8FaroJ-40" value="" style="endArrow=none;dashed=1;html=1;rounded=1;sketch=0;fontColor=#FEFAE0;strokeColor=#DDA15E;fillColor=#BC6C25;curved=0;exitX=0.004;exitY=-0.033;exitDx=0;exitDy=0;exitPerimeter=0;labelBackgroundColor=#283618;" parent="tlL8x4SYafilrO8FaroJ-0" edge="1">
                    <mxGeometry width="50" height="50" relative="1" as="geometry">
                        <mxPoint y="180" as="sourcePoint"/>
                        <mxPoint x="320" y="180" as="targetPoint"/>
                        <Array as="points"/>
                    </mxGeometry>
                </mxCell>
                <mxCell id="465" value="Station(String, ArrayList&lt;String&gt;, Float, Float)" style="text;strokeColor=none;fillColor=none;align=left;verticalAlign=middle;spacingLeft=4;spacingRight=4;overflow=hidden;points=[[0,0.5],[1,0.5]];portConstraint=eastwest;rotatable=0;fontColor=#FEFAE0;rounded=1;" vertex="1" parent="tlL8x4SYafilrO8FaroJ-0">
                    <mxGeometry y="180" width="320" height="30" as="geometry"/>
                </mxCell>
                <mxCell id="466" value="Station(String, String, Float, Float)" style="text;strokeColor=none;fillColor=none;align=left;verticalAlign=middle;spacingLeft=4;spacingRight=4;overflow=hidden;points=[[0,0.5],[1,0.5]];portConstraint=eastwest;rotatable=0;fontColor=#FEFAE0;rounded=1;" vertex="1" parent="tlL8x4SYafilrO8FaroJ-0">
                    <mxGeometry y="210" width="320" height="30" as="geometry"/>
                </mxCell>
                <mxCell id="467" value="equals(Station)" style="text;strokeColor=none;fillColor=none;align=left;verticalAlign=middle;spacingLeft=4;spacingRight=4;overflow=hidden;points=[[0,0.5],[1,0.5]];portConstraint=eastwest;rotatable=0;fontColor=#FEFAE0;rounded=1;" vertex="1" parent="tlL8x4SYafilrO8FaroJ-0">
                    <mxGeometry y="240" width="320" height="30" as="geometry"/>
                </mxCell>
                <mxCell id="468" value="addSchedule(Line, Time)" style="text;strokeColor=none;fillColor=none;align=left;verticalAlign=middle;spacingLeft=4;spacingRight=4;overflow=hidden;points=[[0,0.5],[1,0.5]];portConstraint=eastwest;rotatable=0;fontColor=#FEFAE0;rounded=1;" vertex="1" parent="tlL8x4SYafilrO8FaroJ-0">
                    <mxGeometry y="270" width="320" height="30" as="geometry"/>
                </mxCell>
                <mxCell id="469" value="addLine(String)" style="text;strokeColor=none;fillColor=none;align=left;verticalAlign=middle;spacingLeft=4;spacingRight=4;overflow=hidden;points=[[0,0.5],[1,0.5]];portConstraint=eastwest;rotatable=0;fontColor=#FEFAE0;rounded=1;" vertex="1" parent="tlL8x4SYafilrO8FaroJ-0">
                    <mxGeometry y="300" width="320" height="30" as="geometry"/>
                </mxCell>
                <mxCell id="470" value="getLinesNumbers()" style="text;strokeColor=none;fillColor=none;align=left;verticalAlign=middle;spacingLeft=4;spacingRight=4;overflow=hidden;points=[[0,0.5],[1,0.5]];portConstraint=eastwest;rotatable=0;fontColor=#FEFAE0;rounded=1;" vertex="1" parent="tlL8x4SYafilrO8FaroJ-0">
                    <mxGeometry y="330" width="320" height="30" as="geometry"/>
                </mxCell>
                <mxCell id="tlL8x4SYafilrO8FaroJ-4" value="EdgeTransport" style="swimlane;fontStyle=0;childLayout=stackLayout;horizontal=1;startSize=30;horizontalStack=0;resizeParent=1;resizeParentMax=0;resizeLast=0;collapsible=1;marginBottom=0;fillColor=#BC6C25;strokeColor=#DDA15E;fontColor=#FEFAE0;rounded=1;" parent="23" vertex="1">
                    <mxGeometry x="600" y="580" width="350" height="300" as="geometry"/>
                </mxCell>
                <mxCell id="tlL8x4SYafilrO8FaroJ-5" value="durationJourney: DurationJourney" style="text;strokeColor=none;fillColor=none;align=left;verticalAlign=middle;spacingLeft=4;spacingRight=4;overflow=hidden;points=[[0,0.5],[1,0.5]];portConstraint=eastwest;rotatable=0;fontColor=#FEFAE0;rounded=1;" parent="tlL8x4SYafilrO8FaroJ-4" vertex="1">
                    <mxGeometry y="30" width="350" height="30" as="geometry"/>
                </mxCell>
                <mxCell id="tlL8x4SYafilrO8FaroJ-7" value="distance : float" style="text;strokeColor=none;fillColor=none;align=left;verticalAlign=middle;spacingLeft=4;spacingRight=4;overflow=hidden;points=[[0,0.5],[1,0.5]];portConstraint=eastwest;rotatable=0;fontColor=#FEFAE0;rounded=1;" parent="tlL8x4SYafilrO8FaroJ-4" vertex="1">
                    <mxGeometry y="60" width="350" height="30" as="geometry"/>
                </mxCell>
                <mxCell id="52" value="startingStation: Station" style="text;strokeColor=none;fillColor=none;align=left;verticalAlign=middle;spacingLeft=4;spacingRight=4;overflow=hidden;points=[[0,0.5],[1,0.5]];portConstraint=eastwest;rotatable=0;fontColor=#FEFAE0;rounded=1;" parent="tlL8x4SYafilrO8FaroJ-4" vertex="1">
                    <mxGeometry y="90" width="350" height="30" as="geometry"/>
                </mxCell>
                <mxCell id="471" value="endingStation: Station" style="text;strokeColor=none;fillColor=none;align=left;verticalAlign=middle;spacingLeft=4;spacingRight=4;overflow=hidden;points=[[0,0.5],[1,0.5]];portConstraint=eastwest;rotatable=0;fontColor=#FEFAE0;rounded=1;" vertex="1" parent="tlL8x4SYafilrO8FaroJ-4">
                    <mxGeometry y="120" width="350" height="30" as="geometry"/>
                </mxCell>
                <mxCell id="472" value="lineName: String" style="text;strokeColor=none;fillColor=none;align=left;verticalAlign=middle;spacingLeft=4;spacingRight=4;overflow=hidden;points=[[0,0.5],[1,0.5]];portConstraint=eastwest;rotatable=0;fontColor=#FEFAE0;rounded=1;" vertex="1" parent="tlL8x4SYafilrO8FaroJ-4">
                    <mxGeometry y="150" width="350" height="30" as="geometry"/>
                </mxCell>
                <mxCell id="tlL8x4SYafilrO8FaroJ-41" value="" style="endArrow=none;dashed=1;html=1;rounded=1;sketch=0;fontColor=#FEFAE0;strokeColor=#DDA15E;fillColor=#BC6C25;curved=0;labelBackgroundColor=#283618;" parent="tlL8x4SYafilrO8FaroJ-4" edge="1">
                    <mxGeometry width="50" height="50" relative="1" as="geometry">
                        <mxPoint y="180" as="sourcePoint"/>
                        <mxPoint x="353.33333333333326" y="180" as="targetPoint"/>
                    </mxGeometry>
                </mxCell>
                <mxCell id="473" value="EdgeTransport(Station, Station, DurationJourney, float, String)" style="text;strokeColor=none;fillColor=none;align=left;verticalAlign=middle;spacingLeft=4;spacingRight=4;overflow=hidden;points=[[0,0.5],[1,0.5]];portConstraint=eastwest;rotatable=0;fontColor=#FEFAE0;rounded=1;" vertex="1" parent="tlL8x4SYafilrO8FaroJ-4">
                    <mxGeometry y="180" width="350" height="30" as="geometry"/>
                </mxCell>
                <mxCell id="474" value="copy()" style="text;strokeColor=none;fillColor=none;align=left;verticalAlign=middle;spacingLeft=4;spacingRight=4;overflow=hidden;points=[[0,0.5],[1,0.5]];portConstraint=eastwest;rotatable=0;fontColor=#FEFAE0;rounded=1;" vertex="1" parent="tlL8x4SYafilrO8FaroJ-4">
                    <mxGeometry y="210" width="350" height="30" as="geometry"/>
                </mxCell>
                <mxCell id="475" value="estimateWeight()" style="text;strokeColor=none;fillColor=none;align=left;verticalAlign=middle;spacingLeft=4;spacingRight=4;overflow=hidden;points=[[0,0.5],[1,0.5]];portConstraint=eastwest;rotatable=0;fontColor=#FEFAE0;rounded=1;" vertex="1" parent="tlL8x4SYafilrO8FaroJ-4">
                    <mxGeometry y="240" width="350" height="30" as="geometry"/>
                </mxCell>
                <mxCell id="476" value="swapStations()" style="text;strokeColor=none;fillColor=none;align=left;verticalAlign=middle;spacingLeft=4;spacingRight=4;overflow=hidden;points=[[0,0.5],[1,0.5]];portConstraint=eastwest;rotatable=0;fontColor=#FEFAE0;rounded=1;" vertex="1" parent="tlL8x4SYafilrO8FaroJ-4">
                    <mxGeometry y="270" width="350" height="30" as="geometry"/>
                </mxCell>
                <mxCell id="tlL8x4SYafilrO8FaroJ-61" value="Network" style="swimlane;fontStyle=0;childLayout=stackLayout;horizontal=1;startSize=30;horizontalStack=0;resizeParent=1;resizeParentMax=0;resizeLast=0;collapsible=1;marginBottom=0;rounded=1;sketch=0;fontColor=#FEFAE0;strokeColor=#DDA15E;fillColor=#BC6C25;" parent="23" vertex="1">
                    <mxGeometry x="590" y="70" width="370" height="390" as="geometry"/>
                </mxCell>
                <mxCell id="tlL8x4SYafilrO8FaroJ-62" value="graph: Graph&lt;Station, EdgeTransport&gt;" style="text;strokeColor=none;fillColor=none;align=left;verticalAlign=middle;spacingLeft=4;spacingRight=4;overflow=hidden;points=[[0,0.5],[1,0.5]];portConstraint=eastwest;rotatable=0;rounded=1;sketch=0;fontColor=#FEFAE0;" parent="tlL8x4SYafilrO8FaroJ-61" vertex="1">
                    <mxGeometry y="30" width="370" height="30" as="geometry"/>
                </mxCell>
                <mxCell id="tlL8x4SYafilrO8FaroJ-63" value="stations: HashMap&lt;String, Station&gt;" style="text;strokeColor=none;fillColor=none;align=left;verticalAlign=middle;spacingLeft=4;spacingRight=4;overflow=hidden;points=[[0,0.5],[1,0.5]];portConstraint=eastwest;rotatable=0;rounded=1;sketch=0;fontColor=#FEFAE0;" parent="tlL8x4SYafilrO8FaroJ-61" vertex="1">
                    <mxGeometry y="60" width="370" height="30" as="geometry"/>
                </mxCell>
                <mxCell id="452" value="shortestPath: List&lt;EdgeTransport&gt;" style="text;strokeColor=none;fillColor=none;align=left;verticalAlign=middle;spacingLeft=4;spacingRight=4;overflow=hidden;points=[[0,0.5],[1,0.5]];portConstraint=eastwest;rotatable=0;rounded=1;sketch=0;fontColor=#FEFAE0;" vertex="1" parent="tlL8x4SYafilrO8FaroJ-61">
                    <mxGeometry y="90" width="370" height="30" as="geometry"/>
                </mxCell>
                <mxCell id="453" value="distancePaths: DijkstraShortestPath&lt;Station, EdgeTransport&gt;" style="text;strokeColor=none;fillColor=none;align=left;verticalAlign=middle;spacingLeft=4;spacingRight=4;overflow=hidden;points=[[0,0.5],[1,0.5]];portConstraint=eastwest;rotatable=0;rounded=1;sketch=0;fontColor=#FEFAE0;" vertex="1" parent="tlL8x4SYafilrO8FaroJ-61">
                    <mxGeometry y="120" width="370" height="30" as="geometry"/>
                </mxCell>
                <mxCell id="454" value="dataLine: Map&lt;Line, ArrayList&lt;DurationJourney&gt;&gt;" style="text;strokeColor=none;fillColor=none;align=left;verticalAlign=middle;spacingLeft=4;spacingRight=4;overflow=hidden;points=[[0,0.5],[1,0.5]];portConstraint=eastwest;rotatable=0;rounded=1;sketch=0;fontColor=#FEFAE0;" vertex="1" parent="tlL8x4SYafilrO8FaroJ-61">
                    <mxGeometry y="150" width="370" height="30" as="geometry"/>
                </mxCell>
                <mxCell id="57" value="" style="endArrow=none;dashed=1;html=1;rounded=1;sketch=0;fontColor=#FEFAE0;strokeColor=#DDA15E;fillColor=#BC6C25;curved=0;labelBackgroundColor=#283618;" parent="tlL8x4SYafilrO8FaroJ-61" edge="1">
                    <mxGeometry width="50" height="50" relative="1" as="geometry">
                        <mxPoint y="181.99" as="sourcePoint"/>
                        <mxPoint x="370" y="180" as="targetPoint"/>
                        <Array as="points">
                            <mxPoint x="290" y="180"/>
                        </Array>
                    </mxGeometry>
                </mxCell>
                <mxCell id="55" value="Network(Collection&lt;EdgeTransport&gt;" style="text;strokeColor=none;fillColor=none;align=left;verticalAlign=middle;spacingLeft=4;spacingRight=4;overflow=hidden;points=[[0,0.5],[1,0.5]];portConstraint=eastwest;rotatable=0;rounded=1;sketch=0;fontColor=#FEFAE0;" parent="tlL8x4SYafilrO8FaroJ-61" vertex="1">
                    <mxGeometry y="180" width="370" height="30" as="geometry"/>
                </mxCell>
                <mxCell id="455" value="Network()" style="text;strokeColor=none;fillColor=none;align=left;verticalAlign=middle;spacingLeft=4;spacingRight=4;overflow=hidden;points=[[0,0.5],[1,0.5]];portConstraint=eastwest;rotatable=0;rounded=1;sketch=0;fontColor=#FEFAE0;" vertex="1" parent="tlL8x4SYafilrO8FaroJ-61">
                    <mxGeometry y="210" width="370" height="30" as="geometry"/>
                </mxCell>
                <mxCell id="456" value="addEdge(EdgeTransport, Station Station)" style="text;strokeColor=none;fillColor=none;align=left;verticalAlign=middle;spacingLeft=4;spacingRight=4;overflow=hidden;points=[[0,0.5],[1,0.5]];portConstraint=eastwest;rotatable=0;rounded=1;sketch=0;fontColor=#FEFAE0;" vertex="1" parent="tlL8x4SYafilrO8FaroJ-61">
                    <mxGeometry y="240" width="370" height="30" as="geometry"/>
                </mxCell>
                <mxCell id="457" value="addEdge(EdgeTransport)" style="text;strokeColor=none;fillColor=none;align=left;verticalAlign=middle;spacingLeft=4;spacingRight=4;overflow=hidden;points=[[0,0.5],[1,0.5]];portConstraint=eastwest;rotatable=0;rounded=1;sketch=0;fontColor=#FEFAE0;" vertex="1" parent="tlL8x4SYafilrO8FaroJ-61">
                    <mxGeometry y="270" width="370" height="30" as="geometry"/>
                </mxCell>
                <mxCell id="458" value="shortestPath(Station, Station)" style="text;strokeColor=none;fillColor=none;align=left;verticalAlign=middle;spacingLeft=4;spacingRight=4;overflow=hidden;points=[[0,0.5],[1,0.5]];portConstraint=eastwest;rotatable=0;rounded=1;sketch=0;fontColor=#FEFAE0;" vertex="1" parent="tlL8x4SYafilrO8FaroJ-61">
                    <mxGeometry y="300" width="370" height="30" as="geometry"/>
                </mxCell>
                <mxCell id="459" value="shortestPath(String, String)" style="text;strokeColor=none;fillColor=none;align=left;verticalAlign=middle;spacingLeft=4;spacingRight=4;overflow=hidden;points=[[0,0.5],[1,0.5]];portConstraint=eastwest;rotatable=0;rounded=1;sketch=0;fontColor=#FEFAE0;" vertex="1" parent="tlL8x4SYafilrO8FaroJ-61">
                    <mxGeometry y="330" width="370" height="30" as="geometry"/>
                </mxCell>
                <mxCell id="460" value="simplfiedPath(List&lt;EdgeTransport&gt;" style="text;strokeColor=none;fillColor=none;align=left;verticalAlign=middle;spacingLeft=4;spacingRight=4;overflow=hidden;points=[[0,0.5],[1,0.5]];portConstraint=eastwest;rotatable=0;rounded=1;sketch=0;fontColor=#FEFAE0;" vertex="1" parent="tlL8x4SYafilrO8FaroJ-61">
                    <mxGeometry y="360" width="370" height="30" as="geometry"/>
                </mxCell>
                <mxCell id="477" value="Line" style="swimlane;fontStyle=0;childLayout=stackLayout;horizontal=1;startSize=30;horizontalStack=0;resizeParent=1;resizeParentMax=0;resizeLast=0;collapsible=1;marginBottom=0;fillColor=#BC6C25;strokeColor=#DDA15E;fontColor=#FEFAE0;rounded=1;" vertex="1" parent="23">
                    <mxGeometry x="70" y="90" width="350" height="300" as="geometry"/>
                </mxCell>
                <mxCell id="478" value="name: String" style="text;strokeColor=none;fillColor=none;align=left;verticalAlign=middle;spacingLeft=4;spacingRight=4;overflow=hidden;points=[[0,0.5],[1,0.5]];portConstraint=eastwest;rotatable=0;fontColor=#FEFAE0;rounded=1;" vertex="1" parent="477">
                    <mxGeometry y="30" width="350" height="30" as="geometry"/>
                </mxCell>
                <mxCell id="479" value="terminalStationDeparture: Station" style="text;strokeColor=none;fillColor=none;align=left;verticalAlign=middle;spacingLeft=4;spacingRight=4;overflow=hidden;points=[[0,0.5],[1,0.5]];portConstraint=eastwest;rotatable=0;fontColor=#FEFAE0;rounded=1;" vertex="1" parent="477">
                    <mxGeometry y="60" width="350" height="30" as="geometry"/>
                </mxCell>
                <mxCell id="480" value="terminalStationArrival: Station" style="text;strokeColor=none;fillColor=none;align=left;verticalAlign=middle;spacingLeft=4;spacingRight=4;overflow=hidden;points=[[0,0.5],[1,0.5]];portConstraint=eastwest;rotatable=0;fontColor=#FEFAE0;rounded=1;" vertex="1" parent="477">
                    <mxGeometry y="90" width="350" height="30" as="geometry"/>
                </mxCell>
                <mxCell id="481" value="starts: ArrayList&lt;Time&gt;" style="text;strokeColor=none;fillColor=none;align=left;verticalAlign=middle;spacingLeft=4;spacingRight=4;overflow=hidden;points=[[0,0.5],[1,0.5]];portConstraint=eastwest;rotatable=0;fontColor=#FEFAE0;rounded=1;" vertex="1" parent="477">
                    <mxGeometry y="120" width="350" height="30" as="geometry"/>
                </mxCell>
                <mxCell id="482" value="allStations: ArrayList&lt;Station&gt;" style="text;strokeColor=none;fillColor=none;align=left;verticalAlign=middle;spacingLeft=4;spacingRight=4;overflow=hidden;points=[[0,0.5],[1,0.5]];portConstraint=eastwest;rotatable=0;fontColor=#FEFAE0;rounded=1;" vertex="1" parent="477">
                    <mxGeometry y="150" width="350" height="30" as="geometry"/>
                </mxCell>
                <mxCell id="483" value="" style="endArrow=none;dashed=1;html=1;rounded=1;sketch=0;fontColor=#FEFAE0;strokeColor=#DDA15E;fillColor=#BC6C25;curved=0;labelBackgroundColor=#283618;" edge="1" parent="477">
                    <mxGeometry width="50" height="50" relative="1" as="geometry">
                        <mxPoint y="180" as="sourcePoint"/>
                        <mxPoint x="353.33333333333326" y="180" as="targetPoint"/>
                    </mxGeometry>
                </mxCell>
                <mxCell id="484" value="Line(String, Station, Station, Time)" style="text;strokeColor=none;fillColor=none;align=left;verticalAlign=middle;spacingLeft=4;spacingRight=4;overflow=hidden;points=[[0,0.5],[1,0.5]];portConstraint=eastwest;rotatable=0;fontColor=#FEFAE0;rounded=1;" vertex="1" parent="477">
                    <mxGeometry y="180" width="350" height="30" as="geometry"/>
                </mxCell>
                <mxCell id="485" value="Line(String, Station)" style="text;strokeColor=none;fillColor=none;align=left;verticalAlign=middle;spacingLeft=4;spacingRight=4;overflow=hidden;points=[[0,0.5],[1,0.5]];portConstraint=eastwest;rotatable=0;fontColor=#FEFAE0;rounded=1;" vertex="1" parent="477">
                    <mxGeometry y="210" width="350" height="30" as="geometry"/>
                </mxCell>
                <mxCell id="486" value="addStationsIfNotAlreadyExist(Station)" style="text;strokeColor=none;fillColor=none;align=left;verticalAlign=middle;spacingLeft=4;spacingRight=4;overflow=hidden;points=[[0,0.5],[1,0.5]];portConstraint=eastwest;rotatable=0;fontColor=#FEFAE0;rounded=1;" vertex="1" parent="477">
                    <mxGeometry y="240" width="350" height="30" as="geometry"/>
                </mxCell>
                <mxCell id="487" value="addStart(Time)" style="text;strokeColor=none;fillColor=none;align=left;verticalAlign=middle;spacingLeft=4;spacingRight=4;overflow=hidden;points=[[0,0.5],[1,0.5]];portConstraint=eastwest;rotatable=0;fontColor=#FEFAE0;rounded=1;" vertex="1" parent="477">
                    <mxGeometry y="270" width="350" height="30" as="geometry"/>
                </mxCell>
                <mxCell id="tlL8x4SYafilrO8FaroJ-65" style="edgeStyle=orthogonalEdgeStyle;curved=0;rounded=1;sketch=0;orthogonalLoop=1;jettySize=auto;html=1;fontColor=#FEFAE0;strokeColor=#DDA15E;fillColor=#BC6C25;labelBackgroundColor=#283618;endArrow=diamond;endFill=0;entryX=0;entryY=0.5;entryDx=0;entryDy=0;exitX=1;exitY=0.5;exitDx=0;exitDy=0;" parent="23" source="tlL8x4SYafilrO8FaroJ-1" target="55" edge="1">
                    <mxGeometry relative="1" as="geometry">
                        <mxPoint x="480" y="580" as="sourcePoint"/>
                        <Array as="points">
                            <mxPoint x="500" y="545"/>
                            <mxPoint x="500" y="265"/>
                        </Array>
                        <mxPoint x="480" y="430" as="targetPoint"/>
                    </mxGeometry>
                </mxCell>
                <mxCell id="488" style="edgeStyle=orthogonalEdgeStyle;curved=0;rounded=1;sketch=0;orthogonalLoop=1;jettySize=auto;html=1;fontColor=#FEFAE0;strokeColor=#DDA15E;fillColor=#BC6C25;labelBackgroundColor=#283618;endArrow=diamond;endFill=0;" edge="1" parent="23">
                    <mxGeometry relative="1" as="geometry">
                        <mxPoint x="780.04" y="580" as="sourcePoint"/>
                        <Array as="points">
                            <mxPoint x="780.0799999999999" y="500"/>
                            <mxPoint x="780.0799999999999" y="500"/>
                        </Array>
                        <mxPoint x="780.0799999999999" y="460" as="targetPoint"/>
                    </mxGeometry>
                </mxCell>
                <mxCell id="490" style="edgeStyle=orthogonalEdgeStyle;curved=0;rounded=1;sketch=0;orthogonalLoop=1;jettySize=auto;html=1;fontColor=#FEFAE0;strokeColor=#DDA15E;fillColor=#BC6C25;labelBackgroundColor=#283618;endArrow=diamond;endFill=1;" edge="1" parent="23">
                    <mxGeometry relative="1" as="geometry">
                        <mxPoint x="600" y="690" as="sourcePoint"/>
                        <Array as="points">
                            <mxPoint x="500" y="690"/>
                            <mxPoint x="500" y="690"/>
                        </Array>
                        <mxPoint x="400" y="690" as="targetPoint"/>
                    </mxGeometry>
                </mxCell>
                <mxCell id="491" style="edgeStyle=orthogonalEdgeStyle;curved=0;rounded=1;sketch=0;orthogonalLoop=1;jettySize=auto;html=1;fontColor=#FEFAE0;strokeColor=#DDA15E;fillColor=#BC6C25;labelBackgroundColor=#283618;endArrow=diamond;endFill=1;" edge="1" parent="23">
                    <mxGeometry relative="1" as="geometry">
                        <mxPoint x="240" y="490" as="sourcePoint"/>
                        <Array as="points">
                            <mxPoint x="240" y="510"/>
                            <mxPoint x="240" y="510"/>
                        </Array>
                        <mxPoint x="240" y="390" as="targetPoint"/>
                    </mxGeometry>
                </mxCell>
                <mxCell id="15" value="&lt;font color=&quot;#ffffff&quot;&gt;1&lt;/font&gt;" style="text;html=1;strokeColor=none;fillColor=none;align=center;verticalAlign=middle;whiteSpace=wrap;rounded=0;" parent="23" vertex="1">
                    <mxGeometry x="570" y="250" width="20" height="10" as="geometry"/>
                </mxCell>
                <mxCell id="17" value="&lt;font color=&quot;#ffffff&quot;&gt;1&lt;/font&gt;" style="text;html=1;strokeColor=none;fillColor=none;align=center;verticalAlign=middle;whiteSpace=wrap;rounded=0;" parent="23" vertex="1">
                    <mxGeometry x="780" y="470" width="20" height="10" as="geometry"/>
                </mxCell>
                <mxCell id="14" value="&lt;font color=&quot;#ffffff&quot;&gt;n&lt;/font&gt;" style="text;html=1;strokeColor=none;fillColor=none;align=center;verticalAlign=middle;whiteSpace=wrap;rounded=0;" parent="23" vertex="1">
                    <mxGeometry x="780" y="570" width="20" height="10" as="geometry"/>
                </mxCell>
                <mxCell id="16" value="&lt;font color=&quot;#ffffff&quot;&gt;n&lt;/font&gt;" style="text;html=1;strokeColor=none;fillColor=none;align=center;verticalAlign=middle;whiteSpace=wrap;rounded=0;" parent="23" vertex="1">
                    <mxGeometry x="400" y="530" width="20" height="10" as="geometry"/>
                </mxCell>
                <mxCell id="492" value="&lt;font color=&quot;#ffffff&quot;&gt;2&lt;/font&gt;" style="text;html=1;strokeColor=none;fillColor=none;align=center;verticalAlign=middle;whiteSpace=wrap;rounded=0;" vertex="1" parent="23">
                    <mxGeometry x="400" y="700" width="20" height="10" as="geometry"/>
                </mxCell>
                <mxCell id="493" value="&lt;font color=&quot;#ffffff&quot;&gt;n&lt;/font&gt;" style="text;html=1;strokeColor=none;fillColor=none;align=center;verticalAlign=middle;whiteSpace=wrap;rounded=0;" vertex="1" parent="23">
                    <mxGeometry x="580" y="700" width="20" height="10" as="geometry"/>
                </mxCell>
                <mxCell id="495" value="&lt;font color=&quot;#ffffff&quot;&gt;n&lt;/font&gt;" style="text;html=1;strokeColor=none;fillColor=none;align=center;verticalAlign=middle;whiteSpace=wrap;rounded=0;" vertex="1" parent="23">
                    <mxGeometry x="240" y="390" width="20" height="10" as="geometry"/>
                </mxCell>
                <mxCell id="494" value="&lt;font color=&quot;#ffffff&quot;&gt;n&lt;/font&gt;" style="text;html=1;strokeColor=none;fillColor=none;align=center;verticalAlign=middle;whiteSpace=wrap;rounded=0;" vertex="1" parent="23">
                    <mxGeometry x="240" y="490" width="20" height="10" as="geometry"/>
                </mxCell>
                <mxCell id="633" style="edgeStyle=orthogonalEdgeStyle;curved=0;rounded=1;sketch=0;orthogonalLoop=1;jettySize=auto;html=1;fontColor=#FEFAE0;strokeColor=#DDA15E;fillColor=#BC6C25;endArrow=none;endFill=0;" edge="1" parent="23">
                    <mxGeometry relative="1" as="geometry">
                        <Array as="points">
                            <mxPoint x="749" y="20"/>
                        </Array>
                        <mxPoint x="749" y="-200" as="sourcePoint"/>
                        <mxPoint x="749" y="70" as="targetPoint"/>
                    </mxGeometry>
                </mxCell>
                <mxCell id="497" value="DurationJourney" style="swimlane;fontStyle=0;align=center;verticalAlign=top;childLayout=stackLayout;horizontal=1;startSize=26;horizontalStack=0;resizeParent=1;resizeLast=0;collapsible=1;marginBottom=0;rounded=1;shadow=0;strokeWidth=1;fillColor=#BC6C25;strokeColor=#DDA15E;fontColor=#FEFAE0;" vertex="1" parent="136">
                    <mxGeometry x="659" y="190" width="190" height="210" as="geometry">
                        <mxRectangle x="230" y="140" width="160" height="26" as="alternateBounds"/>
                    </mxGeometry>
                </mxCell>
                <mxCell id="498" value="minute: int" style="text;strokeColor=none;fillColor=none;align=left;verticalAlign=middle;spacingLeft=4;spacingRight=4;overflow=hidden;points=[[0,0.5],[1,0.5]];portConstraint=eastwest;rotatable=0;fontColor=#FEFAE0;rounded=1;" vertex="1" parent="497">
                    <mxGeometry y="26" width="190" height="30" as="geometry"/>
                </mxCell>
                <mxCell id="499" value="seconde: int" style="text;strokeColor=none;fillColor=none;align=left;verticalAlign=middle;spacingLeft=4;spacingRight=4;overflow=hidden;points=[[0,0.5],[1,0.5]];portConstraint=eastwest;rotatable=0;fontColor=#FEFAE0;rounded=1;" vertex="1" parent="497">
                    <mxGeometry y="56" width="190" height="30" as="geometry"/>
                </mxCell>
                <mxCell id="514" value="" style="endArrow=none;dashed=1;html=1;rounded=1;sketch=0;fontColor=#FEFAE0;strokeColor=#DDA15E;fillColor=#BC6C25;curved=0;labelBackgroundColor=#283618;" edge="1" parent="497">
                    <mxGeometry width="50" height="50" relative="1" as="geometry">
                        <mxPoint y="90" as="sourcePoint"/>
                        <mxPoint x="190" y="90" as="targetPoint"/>
                    </mxGeometry>
                </mxCell>
                <mxCell id="500" value="DurationJourney(String, String)" style="text;strokeColor=none;fillColor=none;align=left;verticalAlign=middle;spacingLeft=4;spacingRight=4;overflow=hidden;points=[[0,0.5],[1,0.5]];portConstraint=eastwest;rotatable=0;fontColor=#FEFAE0;rounded=1;" vertex="1" parent="497">
                    <mxGeometry y="86" width="190" height="30" as="geometry"/>
                </mxCell>
                <mxCell id="501" value="DurationJourney(int)" style="text;strokeColor=none;fillColor=none;align=left;verticalAlign=middle;spacingLeft=4;spacingRight=4;overflow=hidden;points=[[0,0.5],[1,0.5]];portConstraint=eastwest;rotatable=0;fontColor=#FEFAE0;rounded=1;" vertex="1" parent="497">
                    <mxGeometry y="116" width="190" height="30" as="geometry"/>
                </mxCell>
                <mxCell id="503" value="add(DurationJourney)" style="text;strokeColor=none;fillColor=none;align=left;verticalAlign=middle;spacingLeft=4;spacingRight=4;overflow=hidden;points=[[0,0.5],[1,0.5]];portConstraint=eastwest;rotatable=0;fontColor=#FEFAE0;rounded=1;" vertex="1" parent="497">
                    <mxGeometry y="146" width="190" height="30" as="geometry"/>
                </mxCell>
                <mxCell id="504" value="copy()" style="text;strokeColor=none;fillColor=none;align=left;verticalAlign=middle;spacingLeft=4;spacingRight=4;overflow=hidden;points=[[0,0.5],[1,0.5]];portConstraint=eastwest;rotatable=0;fontColor=#FEFAE0;rounded=1;" vertex="1" parent="497">
                    <mxGeometry y="176" width="190" height="30" as="geometry"/>
                </mxCell>
                <mxCell id="511" value="Time" style="swimlane;fontStyle=0;align=center;verticalAlign=top;childLayout=stackLayout;horizontal=1;startSize=26;horizontalStack=0;resizeParent=1;resizeLast=0;collapsible=1;marginBottom=0;rounded=1;shadow=0;strokeWidth=1;fillColor=#BC6C25;strokeColor=#DDA15E;fontColor=#FEFAE0;" vertex="1" parent="136">
                    <mxGeometry x="899" y="120" width="310" height="326" as="geometry">
                        <mxRectangle x="230" y="140" width="160" height="26" as="alternateBounds"/>
                    </mxGeometry>
                </mxCell>
                <mxCell id="512" value="hour: int" style="text;strokeColor=none;fillColor=none;align=left;verticalAlign=middle;spacingLeft=4;spacingRight=4;overflow=hidden;points=[[0,0.5],[1,0.5]];portConstraint=eastwest;rotatable=0;fontColor=#FEFAE0;rounded=1;" vertex="1" parent="511">
                    <mxGeometry y="26" width="310" height="30" as="geometry"/>
                </mxCell>
                <mxCell id="513" value="minute: int" style="text;strokeColor=none;fillColor=none;align=left;verticalAlign=middle;spacingLeft=4;spacingRight=4;overflow=hidden;points=[[0,0.5],[1,0.5]];portConstraint=eastwest;rotatable=0;fontColor=#FEFAE0;rounded=1;" vertex="1" parent="511">
                    <mxGeometry y="56" width="310" height="30" as="geometry"/>
                </mxCell>
                <mxCell id="519" value="seconde: int" style="text;strokeColor=none;fillColor=none;align=left;verticalAlign=middle;spacingLeft=4;spacingRight=4;overflow=hidden;points=[[0,0.5],[1,0.5]];portConstraint=eastwest;rotatable=0;fontColor=#FEFAE0;rounded=1;" vertex="1" parent="511">
                    <mxGeometry y="86" width="310" height="30" as="geometry"/>
                </mxCell>
                <mxCell id="502" value="" style="endArrow=none;dashed=1;html=1;rounded=1;sketch=0;fontColor=#FEFAE0;strokeColor=#DDA15E;fillColor=#BC6C25;curved=0;labelBackgroundColor=#283618;" edge="1" parent="511">
                    <mxGeometry width="50" height="50" relative="1" as="geometry">
                        <mxPoint y="120" as="sourcePoint"/>
                        <mxPoint x="310" y="120" as="targetPoint"/>
                    </mxGeometry>
                </mxCell>
                <mxCell id="520" value="Time(int, int, int)" style="text;strokeColor=none;fillColor=none;align=left;verticalAlign=middle;spacingLeft=4;spacingRight=4;overflow=hidden;points=[[0,0.5],[1,0.5]];portConstraint=eastwest;rotatable=0;fontColor=#FEFAE0;rounded=1;" vertex="1" parent="511">
                    <mxGeometry y="116" width="310" height="30" as="geometry"/>
                </mxCell>
                <mxCell id="521" value="Time(Time)" style="text;strokeColor=none;fillColor=none;align=left;verticalAlign=middle;spacingLeft=4;spacingRight=4;overflow=hidden;points=[[0,0.5],[1,0.5]];portConstraint=eastwest;rotatable=0;fontColor=#FEFAE0;rounded=1;" vertex="1" parent="511">
                    <mxGeometry y="146" width="310" height="30" as="geometry"/>
                </mxCell>
                <mxCell id="522" value="increaseWithADurationJourney(DurationJourney)" style="text;strokeColor=none;fillColor=none;align=left;verticalAlign=middle;spacingLeft=4;spacingRight=4;overflow=hidden;points=[[0,0.5],[1,0.5]];portConstraint=eastwest;rotatable=0;fontColor=#FEFAE0;rounded=1;" vertex="1" parent="511">
                    <mxGeometry y="176" width="310" height="30" as="geometry"/>
                </mxCell>
                <mxCell id="523" value="increaseByHours(int)" style="text;strokeColor=none;fillColor=none;align=left;verticalAlign=middle;spacingLeft=4;spacingRight=4;overflow=hidden;points=[[0,0.5],[1,0.5]];portConstraint=eastwest;rotatable=0;fontColor=#FEFAE0;rounded=1;" vertex="1" parent="511">
                    <mxGeometry y="206" width="310" height="30" as="geometry"/>
                </mxCell>
                <mxCell id="524" value="increaseByMinute(int)" style="text;strokeColor=none;fillColor=none;align=left;verticalAlign=middle;spacingLeft=4;spacingRight=4;overflow=hidden;points=[[0,0.5],[1,0.5]];portConstraint=eastwest;rotatable=0;fontColor=#FEFAE0;rounded=1;" vertex="1" parent="511">
                    <mxGeometry y="236" width="310" height="30" as="geometry"/>
                </mxCell>
                <mxCell id="525" value="increaseBySeconde(int)" style="text;strokeColor=none;fillColor=none;align=left;verticalAlign=middle;spacingLeft=4;spacingRight=4;overflow=hidden;points=[[0,0.5],[1,0.5]];portConstraint=eastwest;rotatable=0;fontColor=#FEFAE0;rounded=1;" vertex="1" parent="511">
                    <mxGeometry y="266" width="310" height="30" as="geometry"/>
                </mxCell>
                <mxCell id="526" value="compareTo(Time)" style="text;strokeColor=none;fillColor=none;align=left;verticalAlign=middle;spacingLeft=4;spacingRight=4;overflow=hidden;points=[[0,0.5],[1,0.5]];portConstraint=eastwest;rotatable=0;fontColor=#FEFAE0;rounded=1;" vertex="1" parent="511">
                    <mxGeometry y="296" width="310" height="30" as="geometry"/>
                </mxCell>
                <mxCell id="632" style="edgeStyle=orthogonalEdgeStyle;curved=0;rounded=1;sketch=0;orthogonalLoop=1;jettySize=auto;html=1;fontColor=#FEFAE0;strokeColor=#DDA15E;fillColor=#BC6C25;endArrow=none;endFill=0;exitX=0.47;exitY=-0.01;exitDx=0;exitDy=0;exitPerimeter=0;" edge="1" parent="136" source="497">
                    <mxGeometry relative="1" as="geometry">
                        <Array as="points">
                            <mxPoint x="748" y="160"/>
                        </Array>
                        <mxPoint x="1039" y="160" as="sourcePoint"/>
                        <mxPoint x="609" y="160" as="targetPoint"/>
                    </mxGeometry>
                </mxCell>
                <mxCell id="697" style="edgeStyle=orthogonalEdgeStyle;curved=0;rounded=1;sketch=0;orthogonalLoop=1;jettySize=auto;html=1;fontColor=#FEFAE0;strokeColor=#DDA15E;fillColor=#BC6C25;endArrow=none;endFill=0;entryX=0.383;entryY=0.003;entryDx=0;entryDy=0;entryPerimeter=0;exitX=0.546;exitY=1.006;exitDx=0;exitDy=0;exitPerimeter=0;" edge="1" parent="136" source="451" target="tlL8x4SYafilrO8FaroJ-61">
                    <mxGeometry relative="1" as="geometry">
                        <Array as="points">
                            <mxPoint x="468" y="530"/>
                            <mxPoint x="469" y="570"/>
                            <mxPoint x="769" y="570"/>
                            <mxPoint x="769" y="671"/>
                        </Array>
                        <mxPoint x="639" y="530" as="sourcePoint"/>
                        <mxPoint x="769" y="550" as="targetPoint"/>
                    </mxGeometry>
                </mxCell>
                <mxCell id="698" style="edgeStyle=orthogonalEdgeStyle;curved=0;rounded=1;sketch=0;orthogonalLoop=1;jettySize=auto;html=1;fontColor=#FEFAE0;strokeColor=#DDA15E;fillColor=#BC6C25;endArrow=none;endFill=0;" edge="1" parent="136">
                    <mxGeometry relative="1" as="geometry">
                        <Array as="points">
                            <mxPoint x="848" y="260"/>
                        </Array>
                        <mxPoint x="848" y="260" as="sourcePoint"/>
                        <mxPoint x="899" y="260" as="targetPoint"/>
                    </mxGeometry>
                </mxCell>
                <mxCell id="154" value="View" style="swimlane;whiteSpace=wrap;html=1;strokeColor=#666666;fillColor=#f5f5f5;fontColor=#333333;" parent="WIyWlLk6GJQsqaUBKTNV-1" vertex="1">
                    <mxGeometry x="1300" y="610" width="1090" height="950" as="geometry"/>
                </mxCell>
                <mxCell id="247" value="TextAreaDemo" style="swimlane;fontStyle=0;childLayout=stackLayout;horizontal=1;startSize=30;horizontalStack=0;resizeParent=1;resizeParentMax=0;resizeLast=0;collapsible=1;marginBottom=0;rounded=1;sketch=0;fontColor=#FEFAE0;strokeColor=#DDA15E;fillColor=#BC6C25;" parent="154" vertex="1">
                    <mxGeometry x="760" y="330" width="278" height="510" as="geometry"/>
                </mxCell>
                <mxCell id="248" value="textArea: JTextField" style="text;strokeColor=none;fillColor=none;align=left;verticalAlign=middle;spacingLeft=4;spacingRight=4;overflow=hidden;points=[[0,0.5],[1,0.5]];portConstraint=eastwest;rotatable=0;rounded=1;sketch=0;fontColor=#FEFAE0;" parent="247" vertex="1">
                    <mxGeometry y="30" width="278" height="30" as="geometry"/>
                </mxCell>
                <mxCell id="249" value="COMMIT_ACTION: String" style="text;strokeColor=none;fillColor=none;align=left;verticalAlign=middle;spacingLeft=4;spacingRight=4;overflow=hidden;points=[[0,0.5],[1,0.5]];portConstraint=eastwest;rotatable=0;rounded=1;sketch=0;fontColor=#FEFAE0;" parent="247" vertex="1">
                    <mxGeometry y="60" width="278" height="30" as="geometry"/>
                </mxCell>
                <mxCell id="250" value="Mode: enum" style="text;strokeColor=none;fillColor=none;align=left;verticalAlign=middle;spacingLeft=4;spacingRight=4;overflow=hidden;points=[[0,0.5],[1,0.5]];portConstraint=eastwest;rotatable=0;rounded=1;sketch=0;fontColor=#FEFAE0;" parent="247" vertex="1">
                    <mxGeometry y="90" width="278" height="30" as="geometry"/>
                </mxCell>
                <mxCell id="717" value="words: List&lt;String&gt;" style="text;strokeColor=none;fillColor=none;align=left;verticalAlign=middle;spacingLeft=4;spacingRight=4;overflow=hidden;points=[[0,0.5],[1,0.5]];portConstraint=eastwest;rotatable=0;rounded=1;sketch=0;fontColor=#FEFAE0;" vertex="1" parent="247">
                    <mxGeometry y="120" width="278" height="30" as="geometry"/>
                </mxCell>
                <mxCell id="718" value="mode: Mode" style="text;strokeColor=none;fillColor=none;align=left;verticalAlign=middle;spacingLeft=4;spacingRight=4;overflow=hidden;points=[[0,0.5],[1,0.5]];portConstraint=eastwest;rotatable=0;rounded=1;sketch=0;fontColor=#FEFAE0;" vertex="1" parent="247">
                    <mxGeometry y="150" width="278" height="30" as="geometry"/>
                </mxCell>
                <mxCell id="704" value="" style="endArrow=none;dashed=1;html=1;rounded=1;sketch=0;fontColor=#FEFAE0;strokeColor=#DDA15E;fillColor=#BC6C25;curved=0;exitX=0.01;exitY=0.1;exitDx=0;exitDy=0;exitPerimeter=0;labelBackgroundColor=#283618;" edge="1" parent="247">
                    <mxGeometry width="50" height="50" relative="1" as="geometry">
                        <mxPoint x="-4.547473508864641e-13" y="180.99" as="sourcePoint"/>
                        <mxPoint x="280" y="180" as="targetPoint"/>
                    </mxGeometry>
                </mxCell>
                <mxCell id="719" value="TextAreaDemo(List&lt;String&gt;): FocusListener" style="text;strokeColor=none;fillColor=none;align=left;verticalAlign=middle;spacingLeft=4;spacingRight=4;overflow=hidden;points=[[0,0.5],[1,0.5]];portConstraint=eastwest;rotatable=0;rounded=1;sketch=0;fontColor=#FEFAE0;" vertex="1" parent="247">
                    <mxGeometry y="180" width="278" height="30" as="geometry"/>
                </mxCell>
                <mxCell id="720" value="initComponents()" style="text;strokeColor=none;fillColor=none;align=left;verticalAlign=middle;spacingLeft=4;spacingRight=4;overflow=hidden;points=[[0,0.5],[1,0.5]];portConstraint=eastwest;rotatable=0;rounded=1;sketch=0;fontColor=#FEFAE0;" vertex="1" parent="247">
                    <mxGeometry y="210" width="278" height="30" as="geometry"/>
                </mxCell>
                <mxCell id="721" value="changedUpdate(DocumentEvent)" style="text;strokeColor=none;fillColor=none;align=left;verticalAlign=middle;spacingLeft=4;spacingRight=4;overflow=hidden;points=[[0,0.5],[1,0.5]];portConstraint=eastwest;rotatable=0;rounded=1;sketch=0;fontColor=#FEFAE0;" vertex="1" parent="247">
                    <mxGeometry y="240" width="278" height="30" as="geometry"/>
                </mxCell>
                <mxCell id="722" value="removeUpdate(DocumentEvent)" style="text;strokeColor=none;fillColor=none;align=left;verticalAlign=middle;spacingLeft=4;spacingRight=4;overflow=hidden;points=[[0,0.5],[1,0.5]];portConstraint=eastwest;rotatable=0;rounded=1;sketch=0;fontColor=#FEFAE0;" vertex="1" parent="247">
                    <mxGeometry y="270" width="278" height="30" as="geometry"/>
                </mxCell>
                <mxCell id="723" value="insertUpdate(DocumentEvent)" style="text;strokeColor=none;fillColor=none;align=left;verticalAlign=middle;spacingLeft=4;spacingRight=4;overflow=hidden;points=[[0,0.5],[1,0.5]];portConstraint=eastwest;rotatable=0;rounded=1;sketch=0;fontColor=#FEFAE0;" vertex="1" parent="247">
                    <mxGeometry y="300" width="278" height="30" as="geometry"/>
                </mxCell>
                <mxCell id="754" value="CompletionTask" style="swimlane;fontStyle=0;childLayout=stackLayout;horizontal=1;startSize=30;horizontalStack=0;resizeParent=1;resizeParentMax=0;resizeLast=0;collapsible=1;marginBottom=0;fillColor=#BC6C25;strokeColor=#DDA15E;fontColor=#FEFAE0;rounded=1;" vertex="1" parent="247">
                    <mxGeometry y="330" width="278" height="120" as="geometry"/>
                </mxCell>
                <mxCell id="755" value="completion: String" style="text;strokeColor=none;fillColor=none;align=left;verticalAlign=middle;spacingLeft=4;spacingRight=4;overflow=hidden;points=[[0,0.5],[1,0.5]];portConstraint=eastwest;rotatable=0;fontColor=#FEFAE0;rounded=1;" vertex="1" parent="754">
                    <mxGeometry y="30" width="278" height="30" as="geometry"/>
                </mxCell>
                <mxCell id="756" value="position: int" style="text;strokeColor=none;fillColor=none;align=left;verticalAlign=middle;spacingLeft=4;spacingRight=4;overflow=hidden;points=[[0,0.5],[1,0.5]];portConstraint=eastwest;rotatable=0;fontColor=#FEFAE0;rounded=1;" vertex="1" parent="754">
                    <mxGeometry y="60" width="278" height="30" as="geometry"/>
                </mxCell>
                <mxCell id="764" value="" style="endArrow=none;dashed=1;html=1;rounded=1;sketch=0;fontColor=#FEFAE0;strokeColor=#DDA15E;fillColor=#BC6C25;curved=0;exitX=0.01;exitY=0.1;exitDx=0;exitDy=0;exitPerimeter=0;labelBackgroundColor=#283618;" edge="1" parent="754">
                    <mxGeometry width="50" height="50" relative="1" as="geometry">
                        <mxPoint y="90.98999999999978" as="sourcePoint"/>
                        <mxPoint x="280" y="89.99999999999977" as="targetPoint"/>
                    </mxGeometry>
                </mxCell>
                <mxCell id="757" value="run()" style="text;strokeColor=none;fillColor=none;align=left;verticalAlign=middle;spacingLeft=4;spacingRight=4;overflow=hidden;points=[[0,0.5],[1,0.5]];portConstraint=eastwest;rotatable=0;fontColor=#FEFAE0;rounded=1;" vertex="1" parent="754">
                    <mxGeometry y="90" width="278" height="30" as="geometry"/>
                </mxCell>
                <mxCell id="759" value="CompletionTask" style="swimlane;fontStyle=0;childLayout=stackLayout;horizontal=1;startSize=30;horizontalStack=0;resizeParent=1;resizeParentMax=0;resizeLast=0;collapsible=1;marginBottom=0;fillColor=#BC6C25;strokeColor=#DDA15E;fontColor=#FEFAE0;rounded=1;" vertex="1" parent="247">
                    <mxGeometry y="450" width="278" height="60" as="geometry"/>
                </mxCell>
                <mxCell id="760" value="actionPerformed(ActionEvent)" style="text;strokeColor=none;fillColor=none;align=left;verticalAlign=middle;spacingLeft=4;spacingRight=4;overflow=hidden;points=[[0,0.5],[1,0.5]];portConstraint=eastwest;rotatable=0;fontColor=#FEFAE0;rounded=1;" vertex="1" parent="759">
                    <mxGeometry y="30" width="278" height="30" as="geometry"/>
                </mxCell>
                <mxCell id="288" value="GraphPanel" style="swimlane;fontStyle=0;childLayout=stackLayout;horizontal=1;startSize=30;horizontalStack=0;resizeParent=1;resizeParentMax=0;resizeLast=0;collapsible=1;marginBottom=0;rounded=1;sketch=0;fontColor=#FEFAE0;strokeColor=#DDA15E;fillColor=#BC6C25;" parent="154" vertex="1">
                    <mxGeometry x="400" y="210" width="278" height="210" as="geometry"/>
                </mxCell>
                <mxCell id="289" value="panelWidth, panelHeight: int" style="text;strokeColor=none;fillColor=none;align=left;verticalAlign=middle;spacingLeft=4;spacingRight=4;overflow=hidden;points=[[0,0.5],[1,0.5]];portConstraint=eastwest;rotatable=0;rounded=1;sketch=0;fontColor=#FEFAE0;" parent="288" vertex="1">
                    <mxGeometry y="30" width="278" height="30" as="geometry"/>
                </mxCell>
                <mxCell id="290" value="layout: Layout&lt;Station, EdgeTransport&gt;" style="text;strokeColor=none;fillColor=none;align=left;verticalAlign=middle;spacingLeft=4;spacingRight=4;overflow=hidden;points=[[0,0.5],[1,0.5]];portConstraint=eastwest;rotatable=0;rounded=1;sketch=0;fontColor=#FEFAE0;" parent="288" vertex="1">
                    <mxGeometry y="60" width="278" height="30" as="geometry"/>
                </mxCell>
                <mxCell id="292" value="vv: VisualizationViewer&lt;Station, EdgeTransport&gt;" style="text;strokeColor=none;fillColor=none;align=left;verticalAlign=middle;spacingLeft=4;spacingRight=4;overflow=hidden;points=[[0,0.5],[1,0.5]];portConstraint=eastwest;rotatable=0;rounded=1;sketch=0;fontColor=#FEFAE0;" parent="288" vertex="1">
                    <mxGeometry y="90" width="278" height="30" as="geometry"/>
                </mxCell>
                <mxCell id="293" value="graphView: GraphData" style="text;strokeColor=none;fillColor=none;align=left;verticalAlign=middle;spacingLeft=4;spacingRight=4;overflow=hidden;points=[[0,0.5],[1,0.5]];portConstraint=eastwest;rotatable=0;rounded=1;sketch=0;fontColor=#FEFAE0;" parent="288" vertex="1">
                    <mxGeometry y="120" width="278" height="30" as="geometry"/>
                </mxCell>
                <mxCell id="294" value="decorator: GraphDecorator" style="text;strokeColor=none;fillColor=none;align=left;verticalAlign=middle;spacingLeft=4;spacingRight=4;overflow=hidden;points=[[0,0.5],[1,0.5]];portConstraint=eastwest;rotatable=0;rounded=1;sketch=0;fontColor=#FEFAE0;" parent="288" vertex="1">
                    <mxGeometry y="150" width="278" height="30" as="geometry"/>
                </mxCell>
                <mxCell id="295" value="" style="endArrow=none;dashed=1;html=1;rounded=1;sketch=0;fontColor=#FEFAE0;strokeColor=#DDA15E;fillColor=#BC6C25;curved=0;exitX=0.01;exitY=0.1;exitDx=0;exitDy=0;exitPerimeter=0;labelBackgroundColor=#283618;" parent="288" edge="1">
                    <mxGeometry width="50" height="50" relative="1" as="geometry">
                        <mxPoint x="-4.547473508864641e-13" y="180.99" as="sourcePoint"/>
                        <mxPoint x="280" y="180" as="targetPoint"/>
                    </mxGeometry>
                </mxCell>
                <mxCell id="766" value="GraphPanel(GraphData)" style="text;strokeColor=none;fillColor=none;align=left;verticalAlign=middle;spacingLeft=4;spacingRight=4;overflow=hidden;points=[[0,0.5],[1,0.5]];portConstraint=eastwest;rotatable=0;rounded=1;sketch=0;fontColor=#FEFAE0;" vertex="1" parent="288">
                    <mxGeometry y="180" width="278" height="30" as="geometry"/>
                </mxCell>
                <mxCell id="699" value="View" style="swimlane;fontStyle=0;childLayout=stackLayout;horizontal=1;startSize=30;horizontalStack=0;resizeParent=1;resizeParentMax=0;resizeLast=0;collapsible=1;marginBottom=0;rounded=1;sketch=0;fontColor=#FEFAE0;strokeColor=#DDA15E;fillColor=#BC6C25;" vertex="1" parent="154">
                    <mxGeometry x="60" y="70" width="278" height="390" as="geometry"/>
                </mxCell>
                <mxCell id="700" value="panel: JPanel" style="text;strokeColor=none;fillColor=none;align=left;verticalAlign=middle;spacingLeft=4;spacingRight=4;overflow=hidden;points=[[0,0.5],[1,0.5]];portConstraint=eastwest;rotatable=0;rounded=1;sketch=0;fontColor=#FEFAE0;" vertex="1" parent="699">
                    <mxGeometry y="30" width="278" height="30" as="geometry"/>
                </mxCell>
                <mxCell id="701" value="stationsNames: List&lt;String&gt;" style="text;strokeColor=none;fillColor=none;align=left;verticalAlign=middle;spacingLeft=4;spacingRight=4;overflow=hidden;points=[[0,0.5],[1,0.5]];portConstraint=eastwest;rotatable=0;rounded=1;sketch=0;fontColor=#FEFAE0;" vertex="1" parent="699">
                    <mxGeometry y="60" width="278" height="30" as="geometry"/>
                </mxCell>
                <mxCell id="702" value="actualStationsNames: HashMap&lt;String, String&gt;" style="text;strokeColor=none;fillColor=none;align=left;verticalAlign=middle;spacingLeft=4;spacingRight=4;overflow=hidden;points=[[0,0.5],[1,0.5]];portConstraint=eastwest;rotatable=0;rounded=1;sketch=0;fontColor=#FEFAE0;" vertex="1" parent="699">
                    <mxGeometry y="90" width="278" height="30" as="geometry"/>
                </mxCell>
                <mxCell id="706" value="graphPanel: GraphPanel" style="text;strokeColor=none;fillColor=none;align=left;verticalAlign=middle;spacingLeft=4;spacingRight=4;overflow=hidden;points=[[0,0.5],[1,0.5]];portConstraint=eastwest;rotatable=0;rounded=1;sketch=0;fontColor=#FEFAE0;" vertex="1" parent="699">
                    <mxGeometry y="120" width="278" height="30" as="geometry"/>
                </mxCell>
                <mxCell id="707" value="textAreaStationStart: TextAreaDemo" style="text;strokeColor=none;fillColor=none;align=left;verticalAlign=middle;spacingLeft=4;spacingRight=4;overflow=hidden;points=[[0,0.5],[1,0.5]];portConstraint=eastwest;rotatable=0;rounded=1;sketch=0;fontColor=#FEFAE0;" vertex="1" parent="699">
                    <mxGeometry y="150" width="278" height="30" as="geometry"/>
                </mxCell>
                <mxCell id="708" value="leftPanel: JPanel" style="text;strokeColor=none;fillColor=none;align=left;verticalAlign=middle;spacingLeft=4;spacingRight=4;overflow=hidden;points=[[0,0.5],[1,0.5]];portConstraint=eastwest;rotatable=0;rounded=1;sketch=0;fontColor=#FEFAE0;" vertex="1" parent="699">
                    <mxGeometry y="180" width="278" height="30" as="geometry"/>
                </mxCell>
                <mxCell id="709" value="schedulesPanel: SchedulesPanel" style="text;strokeColor=none;fillColor=none;align=left;verticalAlign=middle;spacingLeft=4;spacingRight=4;overflow=hidden;points=[[0,0.5],[1,0.5]];portConstraint=eastwest;rotatable=0;rounded=1;sketch=0;fontColor=#FEFAE0;" vertex="1" parent="699">
                    <mxGeometry y="210" width="278" height="30" as="geometry"/>
                </mxCell>
                <mxCell id="710" value="lines: HashMap&lt;String, Line&gt;" style="text;strokeColor=none;fillColor=none;align=left;verticalAlign=middle;spacingLeft=4;spacingRight=4;overflow=hidden;points=[[0,0.5],[1,0.5]];portConstraint=eastwest;rotatable=0;rounded=1;sketch=0;fontColor=#FEFAE0;" vertex="1" parent="699">
                    <mxGeometry y="240" width="278" height="30" as="geometry"/>
                </mxCell>
                <mxCell id="254" value="" style="endArrow=none;dashed=1;html=1;rounded=1;sketch=0;fontColor=#FEFAE0;strokeColor=#DDA15E;fillColor=#BC6C25;curved=0;exitX=0.01;exitY=0.1;exitDx=0;exitDy=0;exitPerimeter=0;labelBackgroundColor=#283618;" parent="699" edge="1">
                    <mxGeometry width="50" height="50" relative="1" as="geometry">
                        <mxPoint x="-4.547473508864641e-13" y="270.99" as="sourcePoint"/>
                        <mxPoint x="280" y="270" as="targetPoint"/>
                    </mxGeometry>
                </mxCell>
                <mxCell id="711" value="View(GraphData)" style="text;strokeColor=none;fillColor=none;align=left;verticalAlign=middle;spacingLeft=4;spacingRight=4;overflow=hidden;points=[[0,0.5],[1,0.5]];portConstraint=eastwest;rotatable=0;rounded=1;sketch=0;fontColor=#FEFAE0;" vertex="1" parent="699">
                    <mxGeometry y="270" width="278" height="30" as="geometry"/>
                </mxCell>
                <mxCell id="712" value="createPanel(GraphData)" style="text;strokeColor=none;fillColor=none;align=left;verticalAlign=middle;spacingLeft=4;spacingRight=4;overflow=hidden;points=[[0,0.5],[1,0.5]];portConstraint=eastwest;rotatable=0;rounded=1;sketch=0;fontColor=#FEFAE0;" vertex="1" parent="699">
                    <mxGeometry y="300" width="278" height="30" as="geometry"/>
                </mxCell>
                <mxCell id="713" value="search(): ActionListener" style="text;strokeColor=none;fillColor=none;align=left;verticalAlign=middle;spacingLeft=4;spacingRight=4;overflow=hidden;points=[[0,0.5],[1,0.5]];portConstraint=eastwest;rotatable=0;rounded=1;sketch=0;fontColor=#FEFAE0;" vertex="1" parent="699">
                    <mxGeometry y="330" width="278" height="30" as="geometry"/>
                </mxCell>
                <mxCell id="716" value="stripAccents(String)" style="text;strokeColor=none;fillColor=none;align=left;verticalAlign=middle;spacingLeft=4;spacingRight=4;overflow=hidden;points=[[0,0.5],[1,0.5]];portConstraint=eastwest;rotatable=0;rounded=1;sketch=0;fontColor=#FEFAE0;" vertex="1" parent="699">
                    <mxGeometry y="360" width="278" height="30" as="geometry"/>
                </mxCell>
                <mxCell id="769" value="SchedulesPanel" style="swimlane;fontStyle=0;childLayout=stackLayout;horizontal=1;startSize=30;horizontalStack=0;resizeParent=1;resizeParentMax=0;resizeLast=0;collapsible=1;marginBottom=0;rounded=1;sketch=0;fontColor=#FEFAE0;strokeColor=#DDA15E;fillColor=#BC6C25;" vertex="1" parent="154">
                    <mxGeometry x="760" y="150" width="278" height="90" as="geometry"/>
                </mxCell>
                <mxCell id="770" value="SchedulesPanel(Station, HashMap&lt;String, Line&gt;)" style="text;strokeColor=none;fillColor=none;align=left;verticalAlign=middle;spacingLeft=4;spacingRight=4;overflow=hidden;points=[[0,0.5],[1,0.5]];portConstraint=eastwest;rotatable=0;rounded=1;sketch=0;fontColor=#FEFAE0;" vertex="1" parent="769">
                    <mxGeometry y="30" width="278" height="30" as="geometry"/>
                </mxCell>
                <mxCell id="777" value="scroolToRow(JTable, JScrollPane, int)" style="text;strokeColor=none;fillColor=none;align=left;verticalAlign=middle;spacingLeft=4;spacingRight=4;overflow=hidden;points=[[0,0.5],[1,0.5]];portConstraint=eastwest;rotatable=0;rounded=1;sketch=0;fontColor=#FEFAE0;" vertex="1" parent="769">
                    <mxGeometry y="60" width="278" height="30" as="geometry"/>
                </mxCell>
                <mxCell id="779" value="GraphDecorator" style="swimlane;fontStyle=0;childLayout=stackLayout;horizontal=1;startSize=30;horizontalStack=0;resizeParent=1;resizeParentMax=0;resizeLast=0;collapsible=1;marginBottom=0;rounded=1;sketch=0;fontColor=#FEFAE0;strokeColor=#DDA15E;fillColor=#BC6C25;" vertex="1" parent="154">
                    <mxGeometry x="410" y="520" width="278" height="360" as="geometry"/>
                </mxCell>
                <mxCell id="780" value="lineColors: HashMapwString, String&gt;" style="text;strokeColor=none;fillColor=none;align=left;verticalAlign=middle;spacingLeft=4;spacingRight=4;overflow=hidden;points=[[0,0.5],[1,0.5]];portConstraint=eastwest;rotatable=0;rounded=1;sketch=0;fontColor=#FEFAE0;" vertex="1" parent="779">
                    <mxGeometry y="30" width="278" height="30" as="geometry"/>
                </mxCell>
                <mxCell id="781" value="scale: int" style="text;strokeColor=none;fillColor=none;align=left;verticalAlign=middle;spacingLeft=4;spacingRight=4;overflow=hidden;points=[[0,0.5],[1,0.5]];portConstraint=eastwest;rotatable=0;rounded=1;sketch=0;fontColor=#FEFAE0;" vertex="1" parent="779">
                    <mxGeometry y="60" width="278" height="30" as="geometry"/>
                </mxCell>
                <mxCell id="782" value="shortestPathEdges: List&lt;EdgeTransport&gt;" style="text;strokeColor=none;fillColor=none;align=left;verticalAlign=middle;spacingLeft=4;spacingRight=4;overflow=hidden;points=[[0,0.5],[1,0.5]];portConstraint=eastwest;rotatable=0;rounded=1;sketch=0;fontColor=#FEFAE0;" vertex="1" parent="779">
                    <mxGeometry y="90" width="278" height="30" as="geometry"/>
                </mxCell>
                <mxCell id="783" value="shortestPathStations: List&lt;Station&gt;" style="text;strokeColor=none;fillColor=none;align=left;verticalAlign=middle;spacingLeft=4;spacingRight=4;overflow=hidden;points=[[0,0.5],[1,0.5]];portConstraint=eastwest;rotatable=0;rounded=1;sketch=0;fontColor=#FEFAE0;" vertex="1" parent="779">
                    <mxGeometry y="120" width="278" height="30" as="geometry"/>
                </mxCell>
                <mxCell id="744" value="" style="endArrow=none;dashed=1;html=1;rounded=1;sketch=0;fontColor=#FEFAE0;strokeColor=#DDA15E;fillColor=#BC6C25;curved=0;exitX=0.01;exitY=0.1;exitDx=0;exitDy=0;exitPerimeter=0;labelBackgroundColor=#283618;" edge="1" parent="779">
                    <mxGeometry width="50" height="50" relative="1" as="geometry">
                        <mxPoint x="-4.547473508864641e-13" y="150.99" as="sourcePoint"/>
                        <mxPoint x="280" y="150" as="targetPoint"/>
                    </mxGeometry>
                </mxCell>
                <mxCell id="787" value="GraphDecorator()" style="text;strokeColor=none;fillColor=none;align=left;verticalAlign=middle;spacingLeft=4;spacingRight=4;overflow=hidden;points=[[0,0.5],[1,0.5]];portConstraint=eastwest;rotatable=0;rounded=1;sketch=0;fontColor=#FEFAE0;" vertex="1" parent="779">
                    <mxGeometry y="150" width="278" height="30" as="geometry"/>
                </mxCell>
                <mxCell id="788" value="vertextColor()" style="text;strokeColor=none;fillColor=none;align=left;verticalAlign=middle;spacingLeft=4;spacingRight=4;overflow=hidden;points=[[0,0.5],[1,0.5]];portConstraint=eastwest;rotatable=0;rounded=1;sketch=0;fontColor=#FEFAE0;" vertex="1" parent="779">
                    <mxGeometry y="180" width="278" height="30" as="geometry"/>
                </mxCell>
                <mxCell id="789" value="edgeStroke()" style="text;strokeColor=none;fillColor=none;align=left;verticalAlign=middle;spacingLeft=4;spacingRight=4;overflow=hidden;points=[[0,0.5],[1,0.5]];portConstraint=eastwest;rotatable=0;rounded=1;sketch=0;fontColor=#FEFAE0;" vertex="1" parent="779">
                    <mxGeometry y="210" width="278" height="30" as="geometry"/>
                </mxCell>
                <mxCell id="790" value="vertextSize()" style="text;strokeColor=none;fillColor=none;align=left;verticalAlign=middle;spacingLeft=4;spacingRight=4;overflow=hidden;points=[[0,0.5],[1,0.5]];portConstraint=eastwest;rotatable=0;rounded=1;sketch=0;fontColor=#FEFAE0;" vertex="1" parent="779">
                    <mxGeometry y="240" width="278" height="30" as="geometry"/>
                </mxCell>
                <mxCell id="791" value="toStringLabeller()" style="text;strokeColor=none;fillColor=none;align=left;verticalAlign=middle;spacingLeft=4;spacingRight=4;overflow=hidden;points=[[0,0.5],[1,0.5]];portConstraint=eastwest;rotatable=0;rounded=1;sketch=0;fontColor=#FEFAE0;" vertex="1" parent="779">
                    <mxGeometry y="270" width="278" height="30" as="geometry"/>
                </mxCell>
                <mxCell id="792" value="createLineColorsMap()" style="text;strokeColor=none;fillColor=none;align=left;verticalAlign=middle;spacingLeft=4;spacingRight=4;overflow=hidden;points=[[0,0.5],[1,0.5]];portConstraint=eastwest;rotatable=0;rounded=1;sketch=0;fontColor=#FEFAE0;" vertex="1" parent="779">
                    <mxGeometry y="300" width="278" height="30" as="geometry"/>
                </mxCell>
                <mxCell id="793" value="graphMouseListener()" style="text;strokeColor=none;fillColor=none;align=left;verticalAlign=middle;spacingLeft=4;spacingRight=4;overflow=hidden;points=[[0,0.5],[1,0.5]];portConstraint=eastwest;rotatable=0;rounded=1;sketch=0;fontColor=#FEFAE0;" vertex="1" parent="779">
                    <mxGeometry y="330" width="278" height="30" as="geometry"/>
                </mxCell>
                <mxCell id="794" value="GraphData" style="swimlane;fontStyle=0;childLayout=stackLayout;horizontal=1;startSize=30;horizontalStack=0;resizeParent=1;resizeParentMax=0;resizeLast=0;collapsible=1;marginBottom=0;rounded=1;sketch=0;fontColor=#FEFAE0;strokeColor=#DDA15E;fillColor=#BC6C25;" vertex="1" parent="154">
                    <mxGeometry x="40" y="550" width="320" height="240" as="geometry"/>
                </mxCell>
                <mxCell id="795" value="graph: Graph&lt;Station, EdgeTransport&gt;" style="text;strokeColor=none;fillColor=none;align=left;verticalAlign=middle;spacingLeft=4;spacingRight=4;overflow=hidden;points=[[0,0.5],[1,0.5]];portConstraint=eastwest;rotatable=0;rounded=1;sketch=0;fontColor=#FEFAE0;" vertex="1" parent="794">
                    <mxGeometry y="30" width="320" height="30" as="geometry"/>
                </mxCell>
                <mxCell id="796" value="minimumLongitude: double" style="text;strokeColor=none;fillColor=none;align=left;verticalAlign=middle;spacingLeft=4;spacingRight=4;overflow=hidden;points=[[0,0.5],[1,0.5]];portConstraint=eastwest;rotatable=0;rounded=1;sketch=0;fontColor=#FEFAE0;" vertex="1" parent="794">
                    <mxGeometry y="60" width="320" height="30" as="geometry"/>
                </mxCell>
                <mxCell id="797" value="maximumLatitude: double" style="text;strokeColor=none;fillColor=none;align=left;verticalAlign=middle;spacingLeft=4;spacingRight=4;overflow=hidden;points=[[0,0.5],[1,0.5]];portConstraint=eastwest;rotatable=0;rounded=1;sketch=0;fontColor=#FEFAE0;" vertex="1" parent="794">
                    <mxGeometry y="90" width="320" height="30" as="geometry"/>
                </mxCell>
                <mxCell id="798" value="minimumLatitude: double" style="text;strokeColor=none;fillColor=none;align=left;verticalAlign=middle;spacingLeft=4;spacingRight=4;overflow=hidden;points=[[0,0.5],[1,0.5]];portConstraint=eastwest;rotatable=0;rounded=1;sketch=0;fontColor=#FEFAE0;" vertex="1" parent="794">
                    <mxGeometry y="120" width="320" height="30" as="geometry"/>
                </mxCell>
                <mxCell id="802" value="maximumLongitude: double" style="text;strokeColor=none;fillColor=none;align=left;verticalAlign=middle;spacingLeft=4;spacingRight=4;overflow=hidden;points=[[0,0.5],[1,0.5]];portConstraint=eastwest;rotatable=0;rounded=1;sketch=0;fontColor=#FEFAE0;" vertex="1" parent="794">
                    <mxGeometry y="150" width="320" height="30" as="geometry"/>
                </mxCell>
                <mxCell id="800" value="" style="endArrow=none;dashed=1;html=1;rounded=1;sketch=0;fontColor=#FEFAE0;strokeColor=#DDA15E;fillColor=#BC6C25;curved=0;exitX=0.01;exitY=0.1;exitDx=0;exitDy=0;exitPerimeter=0;labelBackgroundColor=#283618;" edge="1" parent="794">
                    <mxGeometry width="50" height="50" relative="1" as="geometry">
                        <mxPoint x="-4.547473508864641e-13" y="180.99" as="sourcePoint"/>
                        <mxPoint x="320" y="180" as="targetPoint"/>
                    </mxGeometry>
                </mxCell>
                <mxCell id="803" value="GraphData(Graph&lt;Station, EdgeTransport&gt;, Set&lt;Line&gt;)" style="text;strokeColor=none;fillColor=none;align=left;verticalAlign=middle;spacingLeft=4;spacingRight=4;overflow=hidden;points=[[0,0.5],[1,0.5]];portConstraint=eastwest;rotatable=0;rounded=1;sketch=0;fontColor=#FEFAE0;" vertex="1" parent="794">
                    <mxGeometry y="180" width="320" height="30" as="geometry"/>
                </mxCell>
                <mxCell id="804" value="createLayout()" style="text;strokeColor=none;fillColor=none;align=left;verticalAlign=middle;spacingLeft=4;spacingRight=4;overflow=hidden;points=[[0,0.5],[1,0.5]];portConstraint=eastwest;rotatable=0;rounded=1;sketch=0;fontColor=#FEFAE0;" vertex="1" parent="794">
                    <mxGeometry y="210" width="320" height="30" as="geometry"/>
                </mxCell>
                <mxCell id="807" style="edgeStyle=orthogonalEdgeStyle;curved=0;rounded=1;sketch=0;orthogonalLoop=1;jettySize=auto;html=1;fontColor=#FEFAE0;strokeColor=#DDA15E;fillColor=#BC6C25;endArrow=none;endFill=0;" edge="1" parent="154">
                    <mxGeometry relative="1" as="geometry">
                        <Array as="points">
                            <mxPoint x="529" y="170"/>
                        </Array>
                        <mxPoint x="529" y="210" as="sourcePoint"/>
                        <mxPoint x="340" y="170" as="targetPoint"/>
                    </mxGeometry>
                </mxCell>
                <mxCell id="808" style="edgeStyle=orthogonalEdgeStyle;curved=0;rounded=1;sketch=0;orthogonalLoop=1;jettySize=auto;html=1;fontColor=#FEFAE0;strokeColor=#DDA15E;fillColor=#BC6C25;endArrow=none;endFill=0;exitX=0.432;exitY=0;exitDx=0;exitDy=0;exitPerimeter=0;" edge="1" parent="154" source="769">
                    <mxGeometry relative="1" as="geometry">
                        <Array as="points">
                            <mxPoint x="880" y="90"/>
                        </Array>
                        <mxPoint x="880" y="90" as="sourcePoint"/>
                        <mxPoint x="340" y="90" as="targetPoint"/>
                    </mxGeometry>
                </mxCell>
                <mxCell id="809" style="edgeStyle=orthogonalEdgeStyle;curved=0;rounded=1;sketch=0;orthogonalLoop=1;jettySize=auto;html=1;fontColor=#FEFAE0;strokeColor=#DDA15E;fillColor=#BC6C25;endArrow=none;endFill=0;" edge="1" parent="154">
                    <mxGeometry relative="1" as="geometry">
                        <Array as="points">
                            <mxPoint x="550" y="460"/>
                        </Array>
                        <mxPoint x="550" y="520" as="sourcePoint"/>
                        <mxPoint x="550" y="420" as="targetPoint"/>
                    </mxGeometry>
                </mxCell>
                <mxCell id="810" style="edgeStyle=orthogonalEdgeStyle;curved=0;rounded=1;sketch=0;orthogonalLoop=1;jettySize=auto;html=1;fontColor=#FEFAE0;strokeColor=#DDA15E;fillColor=#BC6C25;endArrow=none;endFill=0;" edge="1" parent="154">
                    <mxGeometry relative="1" as="geometry">
                        <Array as="points">
                            <mxPoint x="190" y="500.03"/>
                        </Array>
                        <mxPoint x="190" y="550" as="sourcePoint"/>
                        <mxPoint x="480" y="420" as="targetPoint"/>
                    </mxGeometry>
                </mxCell>
                <mxCell id="812" style="edgeStyle=orthogonalEdgeStyle;curved=0;rounded=1;sketch=0;orthogonalLoop=1;jettySize=auto;html=1;fontColor=#FEFAE0;strokeColor=#DDA15E;fillColor=#BC6C25;endArrow=none;endFill=0;" edge="1" parent="154">
                    <mxGeometry relative="1" as="geometry">
                        <Array as="points">
                            <mxPoint x="900" y="280"/>
                            <mxPoint x="720" y="280"/>
                        </Array>
                        <mxPoint x="900" y="329.9999999999998" as="sourcePoint"/>
                        <mxPoint x="340" y="130" as="targetPoint"/>
                    </mxGeometry>
                </mxCell>
                <mxCell id="336" value="Controller" style="swimlane;whiteSpace=wrap;html=1;strokeColor=#666666;fillColor=#f5f5f5;fontColor=#333333;" parent="WIyWlLk6GJQsqaUBKTNV-1" vertex="1">
                    <mxGeometry x="1320" y="300" width="360" height="218" as="geometry"/>
                </mxCell>
                <mxCell id="416" value="Controller" style="swimlane;fontStyle=0;childLayout=stackLayout;horizontal=1;startSize=30;horizontalStack=0;resizeParent=1;resizeParentMax=0;resizeLast=0;collapsible=1;marginBottom=0;rounded=1;sketch=0;fontColor=#FEFAE0;strokeColor=#DDA15E;fillColor=#BC6C25;" parent="336" vertex="1">
                    <mxGeometry x="40" y="50" width="278" height="120" as="geometry"/>
                </mxCell>
                <mxCell id="417" value="network: Network " style="text;strokeColor=none;fillColor=none;align=left;verticalAlign=middle;spacingLeft=4;spacingRight=4;overflow=hidden;points=[[0,0.5],[1,0.5]];portConstraint=eastwest;rotatable=0;rounded=1;sketch=0;fontColor=#FEFAE0;" parent="416" vertex="1">
                    <mxGeometry y="30" width="278" height="30" as="geometry"/>
                </mxCell>
                <mxCell id="444" value="" style="endArrow=none;dashed=1;html=1;rounded=1;sketch=0;fontColor=#FEFAE0;strokeColor=#DDA15E;fillColor=#BC6C25;curved=0;exitX=0.01;exitY=0.1;exitDx=0;exitDy=0;exitPerimeter=0;labelBackgroundColor=#283618;" edge="1" parent="416">
                    <mxGeometry width="50" height="50" relative="1" as="geometry">
                        <mxPoint x="1.9999999999995453" y="58.99000000000001" as="sourcePoint"/>
                        <mxPoint x="282" y="58" as="targetPoint"/>
                    </mxGeometry>
                </mxCell>
                <mxCell id="430" value="view: View" style="text;strokeColor=none;fillColor=none;align=left;verticalAlign=middle;spacingLeft=4;spacingRight=4;overflow=hidden;points=[[0,0.5],[1,0.5]];portConstraint=eastwest;rotatable=0;rounded=1;sketch=0;fontColor=#FEFAE0;" vertex="1" parent="416">
                    <mxGeometry y="60" width="278" height="30" as="geometry"/>
                </mxCell>
                <mxCell id="431" value="Controller()" style="text;strokeColor=none;fillColor=none;align=left;verticalAlign=middle;spacingLeft=4;spacingRight=4;overflow=hidden;points=[[0,0.5],[1,0.5]];portConstraint=eastwest;rotatable=0;rounded=1;sketch=0;fontColor=#FEFAE0;" vertex="1" parent="416">
                    <mxGeometry y="90" width="278" height="30" as="geometry"/>
                </mxCell>
                <mxCell id="426" style="edgeStyle=orthogonalEdgeStyle;curved=0;rounded=1;sketch=0;orthogonalLoop=1;jettySize=auto;html=1;fontColor=#FEFAE0;strokeColor=#DDA15E;fillColor=#BC6C25;endArrow=none;endFill=0;exitX=0.397;exitY=0.019;exitDx=0;exitDy=0;exitPerimeter=0;entryX=0.677;entryY=-0.007;entryDx=0;entryDy=0;entryPerimeter=0;" parent="WIyWlLk6GJQsqaUBKTNV-1" source="416" edge="1" target="zkfFHV4jXpPFQw0GAbJ--0">
                    <mxGeometry relative="1" as="geometry">
                        <Array as="points">
                            <mxPoint x="1470" y="90"/>
                            <mxPoint x="520" y="90"/>
                        </Array>
                        <mxPoint x="1710" y="280" as="sourcePoint"/>
                        <mxPoint x="520" y="270" as="targetPoint"/>
                    </mxGeometry>
                </mxCell>
                <mxCell id="806" style="edgeStyle=orthogonalEdgeStyle;curved=0;rounded=1;sketch=0;orthogonalLoop=1;jettySize=auto;html=1;fontColor=#FEFAE0;strokeColor=#DDA15E;fillColor=#BC6C25;endArrow=none;endFill=0;" edge="1" parent="WIyWlLk6GJQsqaUBKTNV-1">
                    <mxGeometry relative="1" as="geometry">
                        <Array as="points">
                            <mxPoint x="1480" y="610"/>
                        </Array>
                        <mxPoint x="1480" y="470" as="sourcePoint"/>
                        <mxPoint x="1480" y="680" as="targetPoint"/>
                    </mxGeometry>
                </mxCell>
                <mxCell id="813" style="edgeStyle=orthogonalEdgeStyle;curved=0;rounded=1;sketch=0;orthogonalLoop=1;jettySize=auto;html=1;fontColor=#FEFAE0;strokeColor=#DDA15E;fillColor=#BC6C25;endArrow=none;endFill=0;" edge="1" parent="WIyWlLk6GJQsqaUBKTNV-1">
                    <mxGeometry relative="1" as="geometry">
                        <Array as="points">
                            <mxPoint x="1280" y="680"/>
                            <mxPoint x="820" y="680"/>
                        </Array>
                        <mxPoint x="1360" y="400" as="sourcePoint"/>
                        <mxPoint x="820" y="810" as="targetPoint"/>
                    </mxGeometry>
                </mxCell>
            </root>
        </mxGraphModel>
    </diagram>
</mxfile>